<?xml version="1.0" encoding="utf-8"?>
<!-- Generator: Adobe Illustrator 19.1.0, SVG Export Plug-In . SVG Version: 6.00 Build 0)  -->
<!DOCTYPE svg PUBLIC "-//W3C//DTD SVG 1.1//EN" "http://www.w3.org/Graphics/SVG/1.1/DTD/svg11.dtd">
<svg version="1.1" xmlns="http://www.w3.org/2000/svg" xmlns:xlink="http://www.w3.org/1999/xlink" x="0px" y="0px"
	 viewBox="0 0 400 500.1" enable-background="new 0 0 400 500.1" xml:space="preserve">
<g id="Guides" display="none">
	<g id="Help" display="inline">
	</g>
	<g id="Help_1_" display="inline">
	</g>
</g>
<g id="BG" display="none">
	<rect display="inline" fill="#00E508" width="400" height="500.1"/>
</g>
<g id="Icons">
	<g>
		<path fill="#FFFFFF" d="M5.8,3.7H0V0h16.6v3.7h-5.8v14.5H5.8V3.7z"/>
		<path fill="#FFFFFF" d="M19.8,0h4.9v18.2h-4.9V0z"/>
		<path fill="#FFFFFF" d="M28.9,0h5.5l4.9,11.5L44.3,0h5.4v18.2h-4.3V8.3c0-0.4,0.1-1.8,0.1-1.9l-0.7,1.9l-4.1,9.9h-2.9l-4.1-9.9
			c-0.2-0.4-0.6-1.7-0.7-1.9c0,0.1,0.1,1.5,0.1,1.9v9.9h-4.2V0z"/>
		<path fill="#FFFFFF" d="M60.4,0h4.1l7.6,18.2h-4.9l-1.5-3.9H59l-1.5,3.9h-4.8L60.4,0z M64.5,11.1l-2.2-5.7l-2.2,5.7H64.5z"/>
		<path fill="#FFFFFF" d="M83.2,14.7l-1.5-3.5h-1.6v7h-4.9V0h8.3c4.4,0,6.3,2.7,6.3,5.6c0,2.5-1.3,4.4-3.6,5.1l1.4,2.6
			c0.7,1.4,1.5,1.8,2.6,1.8c0.4,0,0.7,0,1.1-0.2v3c-0.8,0.3-1.9,0.4-2.6,0.4C86.4,18.4,84.5,17.5,83.2,14.7z M82.3,8.1
			c1.9,0,2.7-0.8,2.7-2.4c0-1.6-0.8-2.4-2.7-2.4h-2.1v4.8H82.3z"/>
		<path fill="#FFFFFF" d="M94.4,9.8V0h5v9.5c0,3.2,1.3,4.9,3.9,4.9c2.6,0,3.9-1.7,3.9-4.9V0h4.8v9.8c0,6.1-3.9,8.9-8.8,8.9
			C98.4,18.7,94.4,15.9,94.4,9.8z"/>
	</g>
	<path fill="#FFFFFF" d="M163.7,11.8l-3.3-3.3c0.5-0.8,0.8-1.8,0.8-2.8c0-3-2.6-5.7-5.7-5.7c-3,0-5.5,2.5-5.5,5.5
		c0,3,2.6,5.7,5.7,5.7c1,0,1.9-0.3,2.8-0.7l3.4,3.4c0.3,0.3,0.9,0.3,1.2,0l0.8-0.8C164.1,12.6,164,12.2,163.7,11.8z M151.7,5.5
		c0-2.1,1.7-3.8,3.8-3.8c2.1,0,4,1.9,4,4c0,2.1-1.7,3.8-3.8,3.8C153.6,9.4,151.7,7.6,151.7,5.5z"/>
	<path fill="#001D41" d="M17,151.7h-2.4c-1.7-1.1-3.7-1.7-6.1-1.7s-4.4,0.6-6.1,1.7H0c0.4,0.4,0.7,1.1,0.8,1.7
		C0.3,154.1,0,155,0,156c0,2.3,1.9,4.2,4.2,4.2c1.1,0,2.1-0.4,2.9-1.2l1.3,2l1.3-2c0.8,0.7,1.8,1.2,2.9,1.2c2.3,0,4.2-1.9,4.2-4.2
		c0-0.9-0.3-1.8-0.8-2.5C16.3,152.8,16.6,152.1,17,151.7z M4.2,158.8c-1.6,0-2.9-1.3-2.9-2.9c0-1.6,1.3-2.9,2.9-2.9s2.9,1.3,2.9,2.9
		C7.1,157.6,5.8,158.8,4.2,158.8z M8.5,156c0-2.1-1.5-3.8-3.4-4.2c1-0.3,2.2-0.5,3.4-0.5s2.4,0.2,3.4,0.5
		C10,152.2,8.5,153.9,8.5,156z M12.8,158.8c-1.6,0-2.9-1.3-2.9-2.9c0-1.6,1.3-2.9,2.9-2.9s2.9,1.3,2.9,2.9
		C15.6,157.6,14.3,158.8,12.8,158.8z M4.2,154.1c-1,0-1.8,0.8-1.8,1.8c0,1,0.8,1.8,1.8,1.8s1.8-0.8,1.8-1.8
		C6.1,154.9,5.3,154.1,4.2,154.1z M4.2,156.5c-0.3,0-0.6-0.2-0.6-0.6s0.2-0.6,0.6-0.6s0.6,0.2,0.6,0.6S4.6,156.5,4.2,156.5z
		 M12.8,154.1c-1,0-1.8,0.8-1.8,1.8c0,1,0.8,1.8,1.8,1.8s1.8-0.8,1.8-1.8C14.6,154.9,13.8,154.1,12.8,154.1z M12.8,156.5
		c-0.3,0-0.6-0.2-0.6-0.6s0.2-0.6,0.6-0.6s0.6,0.2,0.6,0.6S13.1,156.5,12.8,156.5z"/>
	<polygon fill="#FFFFFF" points="209.5,100 208.7,100.8 212.3,104.2 200,104.2 200,105.3 212.3,105.3 208.7,108.7 209.5,109.5 
		213.7,105.5 213.7,105.5 214.5,104.8 214.5,104.8 214.5,104.7 213.7,104 213.7,104 	"/>
	<polygon fill="#0093D0" points="259.5,100 258.7,100.8 262.3,104.2 250,104.2 250,105.3 262.3,105.3 258.7,108.7 259.5,109.5 
		263.7,105.5 263.7,105.5 264.5,104.8 264.5,104.8 264.5,104.7 263.7,104 263.7,104 	"/>
	<polygon fill="#001D41" points="114.5,100 113.2,101.2 118.6,106.4 100,106.4 100,108.1 118.7,108.1 113.2,113.3 114.5,114.5 
		120.8,108.4 120.8,108.4 122,107.3 122,107.3 122,107.2 120.8,106.1 120.8,106.1 	"/>
	<polygon fill="#001D41" points="157.5,114.5 158.8,113.3 153.4,108.1 172,108.1 172,106.4 153.3,106.4 158.8,101.2 157.5,100 
		151.2,106.1 151.2,106.1 150,107.2 150,107.2 150,107.3 151.2,108.4 151.2,108.4 	"/>
	<path fill="#0093D0" d="M302.5,0c-1.4,0-2.5,1.1-2.5,2.5c0,2.4,2.5,5.5,2.5,5.5s2.5-3.1,2.5-5.5C305,1.1,303.9,0,302.5,0z
		 M302.5,3.9c-0.7,0-1.4-0.6-1.4-1.4s0.6-1.4,1.4-1.4c0.7,0,1.3,0.6,1.3,1.4S303.2,3.9,302.5,3.9z"/>
	<path fill="#00D19C" d="M252.5,0c-1.4,0-2.5,1.1-2.5,2.5c0,2.4,2.5,5.5,2.5,5.5s2.5-3.1,2.5-5.5C255,1.1,253.9,0,252.5,0z
		 M252.5,3.9c-0.7,0-1.4-0.6-1.4-1.4s0.6-1.4,1.4-1.4c0.7,0,1.3,0.6,1.3,1.4S253.2,3.9,252.5,3.9z"/>
	<path fill="#001D41" d="M205,0c-2.8,0-5,2.2-5,5c0,4.8,5,11,5,11s5-6.2,5-11C210,2.2,207.8,0,205,0z M205,7.8
		c-1.5,0-2.7-1.2-2.7-2.7s1.2-2.7,2.7-2.7c1.5,0,2.7,1.2,2.7,2.7S206.5,7.8,205,7.8z"/>
	<path fill="#FFFFFF" d="M355,0c-2.8,0-5,2.2-5,5c0,4.8,5,11,5,11s5-6.2,5-11C360,2.2,357.8,0,355,0z M355,7.8
		c-1.5,0-2.7-1.2-2.7-2.7s1.2-2.7,2.7-2.7c1.5,0,2.7,1.2,2.7,2.7S356.5,7.8,355,7.8z"/>
	<polygon fill="#00D19C" points="200,50 203.2,54.5 206.5,50 	"/>
	<polygon fill="#0093D0" points="250,50 253.2,54.5 256.5,50 	"/>
	<polygon fill="#001D41" points="50,56.5 54.5,53.2 50,50 	"/>
	<polygon fill="#00D19C" points="100,56.5 104.5,53.2 100,50 	"/>
	<polygon fill="#0093D0" points="150,56.5 154.5,53.2 150,50 	"/>
	<polygon fill="#FFFFFF" points="0,56 4,53 0,50 	"/>
	<path fill="#FFFFFF" d="M63.1,110c0,1.7-1.4,3.1-3.1,3.1c-1.7,0-3.1-1.4-3.1-3.1s1.4-3.1,3.1-3.1C61.7,106.9,63.1,108.3,63.1,110z
		 M70,102.5v15c0,1.4-1.1,2.5-2.5,2.5h-15c-1.4,0-2.5-1.1-2.5-2.5v-15c0-1.4,1.1-2.5,2.5-2.5h15C68.9,100,70,101.1,70,102.5z
		 M65.6,110c0-3.1-2.5-5.6-5.6-5.6c-3.1,0-5.6,2.5-5.6,5.6s2.5,5.6,5.6,5.6C63.1,115.6,65.6,113.1,65.6,110z M74,103.9l-2.8,1.8v8.8
		l2.8,1.8c0.4,0.3,1,0,1-0.5v-11.4C75,103.9,74.4,103.6,74,103.9z"/>
	<path fill="#FFFFFF" d="M6.3,106.8c-0.3,0.3-0.8,0.3-1.2,0l-1.8-2l-1.8,2c-0.3,0.3-0.8,0.3-1.2,0c-0.3-0.3-0.3-0.8,0-1.1l1.9-2.1
		l-1.9-2.1c-0.3-0.3-0.3-0.8,0-1.1c0.3-0.3,0.8-0.3,1.2,0l1.8,2l1.8-2c0.3-0.3,0.8-0.3,1.2,0c0.3,0.3,0.3,0.8,0,1.1l-1.9,2.1
		l1.9,2.1C6.6,105.9,6.6,106.4,6.3,106.8z"/>
	<path fill="#001D41" d="M18.3,303.8l-2.2-1.7c-0.1-0.1-0.3-0.2-0.5-0.2c-0.2-0.1-0.4-0.1-0.5-0.1H8.8l0.7,4.6h5.6
		c0.2,0,0.3,0,0.5-0.1s0.4-0.1,0.5-0.2l2.2-1.7c0.1-0.1,0.2-0.2,0.2-0.3C18.5,304,18.4,303.9,18.3,303.8z M7.9,300H6.9
		c-0.3,0-0.5,0.2-0.5,0.5v3.2H3.4c-0.2,0-0.3,0-0.5,0.1c-0.2,0.1-0.4,0.1-0.5,0.2l-2.2,1.7C0.1,305.7,0,305.8,0,306
		c0,0.1,0.1,0.2,0.2,0.3l2.2,1.7c0.1,0.1,0.3,0.2,0.5,0.2c0.2,0.1,0.4,0.1,0.5,0.1h3.1v7.8c0,0.3,0.2,0.5,0.5,0.5h0.9
		c0.3,0,0.5-0.2,0.5-0.5v-15.6C8.3,300.2,8.1,300,7.9,300z"/>
	<path fill="#001D41" d="M63.8,301c-1.5-1.3-3.8-1.3-5.3,0l-1,0.9l-1-0.9c-1.5-1.3-3.8-1.3-5.3,0c-1.6,1.5-1.6,3.9,0,5.4l6.3,5.7
		l6.3-5.7C65.4,304.9,65.4,302.5,63.8,301z M62.8,305.5l-5.3,4.9l-5.3-4.9c-0.5-0.5-0.7-1.1-0.7-1.8c0-0.7,0.1-1.2,0.7-1.7
		c0.5-0.4,1.1-0.7,1.8-0.7c0.7,0,1.3,0.4,1.8,0.8l1.8,1.6l1.8-1.6c0.5-0.4,1.1-0.8,1.8-0.8c0.7,0,1.3,0.2,1.8,0.7
		c0.5,0.5,0.7,1,0.7,1.7C63.6,304.3,63.4,305,62.8,305.5z"/>
	<path fill="#001D41" d="M114.5,305.3h-4.2l-1.5,1.6c-0.4,0.4-0.9,0.6-1.4,0.6c-0.5,0-1-0.2-1.4-0.6c-0.4-0.4-0.6-0.9-0.6-1.5
		c0,0,0-0.1,0-0.1h-4.9c-0.3,0-0.5,0.2-0.5,0.5v2.1h15v-2.1C115,305.5,114.8,305.3,114.5,305.3z M108.1,306.2l4.2-4.5
		c0.2-0.2,0.2-0.5,0-0.7l-0.8-0.8c-0.2-0.2-0.5-0.2-0.7,0l-4.2,4.5c-0.4,0.4-0.4,1.1,0,1.6C107.1,306.6,107.7,306.6,108.1,306.2z
		 M102.4,314.4c0.1,0.4,0.4,0.6,0.8,0.6h8.8c0.3,0,0.7-0.3,0.8-0.6l1.3-5.5h-12.8L102.4,314.4z"/>
	<path fill="#FFFFFF" d="M18.3,253.8l-2.2-1.7c-0.1-0.1-0.3-0.2-0.5-0.2c-0.2-0.1-0.4-0.1-0.5-0.1H8.8l0.7,4.6h5.6
		c0.2,0,0.3,0,0.5-0.1s0.4-0.1,0.5-0.2l2.2-1.7c0.1-0.1,0.2-0.2,0.2-0.3S18.4,253.9,18.3,253.8z M7.9,250H6.9
		c-0.3,0-0.5,0.2-0.5,0.5v3.2H3.4c-0.2,0-0.3,0-0.5,0.1c-0.2,0.1-0.4,0.1-0.5,0.2l-2.2,1.7C0.1,255.7,0,255.8,0,256
		c0,0.1,0.1,0.2,0.2,0.3l2.2,1.7c0.1,0.1,0.3,0.2,0.5,0.2c0.2,0.1,0.4,0.1,0.5,0.1h3.1v7.8c0,0.3,0.2,0.5,0.5,0.5h0.9
		c0.3,0,0.5-0.2,0.5-0.5v-15.6C8.3,250.2,8.1,250,7.9,250z"/>
	<path fill="#FFFFFF" d="M63.8,251c-1.5-1.3-3.8-1.3-5.3,0l-1,0.9l-1-0.9c-1.5-1.3-3.8-1.3-5.3,0c-1.6,1.5-1.6,3.9,0,5.4l6.3,5.7
		l6.3-5.7C65.4,254.9,65.4,252.5,63.8,251z M62.8,255.5l-5.3,4.9l-5.3-4.9c-0.5-0.5-0.7-1.1-0.7-1.8c0-0.7,0.1-1.2,0.7-1.7
		c0.5-0.4,1.1-0.7,1.8-0.7c0.7,0,1.3,0.4,1.8,0.8l1.8,1.6l1.8-1.6c0.5-0.4,1.1-0.8,1.8-0.8c0.7,0,1.3,0.2,1.8,0.7
		c0.5,0.5,0.7,1,0.7,1.7C63.6,254.3,63.4,255,62.8,255.5z"/>
	<path fill="#FFFFFF" d="M114.5,255.3h-4.2l-1.5,1.6c-0.4,0.4-0.9,0.6-1.4,0.6c-0.5,0-1-0.2-1.4-0.6c-0.4-0.4-0.6-0.9-0.6-1.5
		c0,0,0-0.1,0-0.1h-4.9c-0.3,0-0.5,0.2-0.5,0.5v2.1h15v-2.1C115,255.5,114.8,255.3,114.5,255.3z M108.1,256.2l4.2-4.5
		c0.2-0.2,0.2-0.5,0-0.7l-0.8-0.8c-0.2-0.2-0.5-0.2-0.7,0l-4.2,4.5c-0.4,0.4-0.4,1.1,0,1.6C107.1,256.6,107.7,256.6,108.1,256.2z
		 M102.4,264.4c0.1,0.4,0.4,0.6,0.8,0.6h8.8c0.3,0,0.7-0.3,0.8-0.6l1.3-5.5h-12.8L102.4,264.4z"/>
	<path fill="#001D41" d="M20.8,207.9l-1.4-5.3c-0.3-1.4-1.8-2.6-3.4-2.6H6c-1.6,0-3.1,1.2-3.4,2.6L1.2,208c-0.7,0.7-1.2,1.7-1.2,2.7
		v3.9h2v1.9c0,1.1,0.9,1.9,2,1.9c1.1,0,2-0.9,2-1.9v-1.9h10v1.9c0,1.1,0.9,1.9,2,1.9c1.1,0,2-0.9,2-1.9v-1.9h2v-4
		C22,209.5,21.5,208.6,20.8,207.9z M4,212.6c-1.1,0-2-0.9-2-1.9c0-1.1,0.9-1.9,2-1.9c1.1,0,2,0.9,2,1.9C6,211.7,5.1,212.6,4,212.6z
		 M3.5,206.7l1-3.7c0.1-0.6,0.8-1.2,1.5-1.2h10c0.6,0,1.3,0.6,1.5,1.2l1,3.7H3.5z M18,212.6c-1.1,0-2-0.9-2-1.9c0-1.1,0.9-1.9,2-1.9
		c1.1,0,2,0.9,2,1.9C20,211.7,19.1,212.6,18,212.6z"/>
	<path fill="#001D41" d="M74,208.2c-0.4,0-0.7,0-1.1,0.1l-1.5-4.9c0.8-0.3,1.2-1,1.2-1.6c0-0.5-0.2-0.9-0.5-1.2
		c-0.3-0.2-0.7-0.5-1.4-0.5h-1.8c-0.3,0-0.6,0.3-0.6,0.6s0.3,0.6,0.6,0.6h1.8c0.3,0,0.5,0.1,0.6,0.2c0.1,0.1,0.2,0.2,0.2,0.4
		c0,0.3-0.2,0.6-0.8,0.6c-0.2,0-0.4,0.1-0.5,0.2c-0.1,0.1-0.1,0.3-0.1,0.5l0.6,1.9h-9.1l-0.3-1c0.8-0.3,1.4-0.5,1.5-0.5
		c0.3-0.1,0.5-0.3,0.4-0.6c0-0.3-0.3-0.5-0.6-0.5h-4.5c-0.2,0-0.4,0.1-0.5,0.3c-0.1,0.2-0.1,0.4,0,0.6c0.1,0.1,0.8,1.3,2,1.3
		c0.2,0,0.4,0,0.6-0.1l0.3,1l-2,3.4c-0.8-0.3-1.6-0.5-2.5-0.5c-3.3,0-6,2.6-6,5.9s2.7,5.9,6,5.9c3.1,0,5.7-2.3,6-5.3h0.8
		c0.2,0.5,0.8,0.9,1.4,0.9c0.8,0,1.5-0.7,1.5-1.5c0-0.2,0-0.4-0.1-0.6l5.9-6.1l0.3,1.2c-2.2,0.9-3.8,3-3.8,5.5c0,3.2,2.7,5.9,6,5.9
		s6-2.6,6-5.9S77.3,208.2,74,208.2z M61,206.9l2.1,6.1c-0.2,0.1-0.3,0.3-0.4,0.5H62c-0.2-1.7-1.1-3.2-2.4-4.2L61,206.9z M60.5,213.5
		H57l1.7-2.9C59.7,211.3,60.3,212.4,60.5,213.5z M56,218.5c-2.5,0-4.5-2-4.5-4.4s2-4.4,4.5-4.4c0.6,0,1.2,0.1,1.7,0.3l-2.3,3.8
		c-0.1,0.2-0.1,0.4,0,0.6s0.3,0.3,0.5,0.3h4.5C60.2,216.9,58.3,218.5,56,218.5z M64.6,212.7c-0.1,0-0.2-0.1-0.4-0.1l-2.2-6.5h9l0,0
		L64.6,212.7z M74,218.5c-2.5,0-4.5-2-4.5-4.4c0-1.8,1.1-3.3,2.7-4l1.2,4.2c0.1,0.3,0.3,0.4,0.6,0.4c0.1,0,0.1,0,0.2,0
		c0.3-0.1,0.5-0.4,0.4-0.7l-1.2-4.2c0.2,0,0.4-0.1,0.7-0.1c2.5,0,4.5,2,4.5,4.4S76.5,218.5,74,218.5z"/>
	<g>
		<path fill="#001D41" d="M108.9,217.3l-4.3,1.7l0.8,1.8c0.4,1,1.5,1.5,3,0.9c1.5-0.6,1.8-1.7,1.3-2.6L108.9,217.3z"/>
		<path fill="#001D41" d="M107.8,213c-0.1-1.1-0.6-3.2-1.7-4.5c0,0-2.5-3-4.5-2.2c-2,0.8-1.5,4.4-1.5,4.4c0.1,1.1,0.8,2.6,1.4,3.5
			l0.9,1.2c0.5,0.7,1.2,1.8,1.7,2.6l4.4-1.8C108.1,215.2,107.8,213.9,107.8,213z"/>
		<path fill="#001D41" d="M109.9,212.6c-0.5,1-0.2,2.1,1.3,2.7c1.5,0.7,2.5,0.1,2.9-0.9l0.9-1.8l-4.3-1.9L109.9,212.6z"/>
		<path fill="#001D41" d="M118.6,200.2c-1.9-0.9-4.4,1.9-4.4,1.9c-0.8,0.8-1.5,2.3-1.8,3.4l-0.3,1.4c-0.2,0.8-0.6,2-0.9,3l4.4,1.9
			c0.6-1,1.4-2,2-2.7c0.8-0.8,2.1-2.6,2.3-4.2C119.9,204.8,120.5,201,118.6,200.2z"/>
	</g>
	<path fill="#FFFFFF" d="M113.5,153c0,0.1,0,0.3,0,0.4c0,4-3.1,8.6-8.8,8.6c-1.7,0-3.4-0.5-4.7-1.4c0.2,0,0.5,0,0.7,0
		c1.4,0,2.8-0.5,3.8-1.3c-1.3,0-2.5-0.9-2.9-2.1c0.2,0,0.4,0.1,0.6,0.1c0.3,0,0.6,0,0.8-0.1c-1.4-0.3-2.5-1.5-2.5-3c0,0,0,0,0,0
		c0.4,0.2,0.9,0.4,1.4,0.4c-0.8-0.5-1.4-1.5-1.4-2.5c0-0.6,0.2-1.1,0.4-1.5c1.5,1.8,3.8,3,6.3,3.2c-0.1-0.2-0.1-0.5-0.1-0.7
		c0-1.7,1.4-3,3.1-3c0.9,0,1.7,0.4,2.2,1c0.7-0.1,1.4-0.4,2-0.7c-0.2,0.7-0.7,1.3-1.4,1.7c0.6-0.1,1.2-0.2,1.8-0.5
		C114.6,152,114.1,152.6,113.5,153z"/>
	<path fill="#FFFFFF" d="M163.3,150h-11.7c-0.9,0-1.7,0.8-1.7,1.7v11.7c0,0.9,0.8,1.7,1.7,1.7h11.7c0.9,0,1.7-0.7,1.7-1.7v-11.7
		C165,150.8,164.2,150,163.3,150z M157.5,162.1c2.5,0,4.6-2.1,4.6-4.6c0-0.3,0-0.6-0.1-0.8h1.3v6c0,0.3-0.3,0.6-0.6,0.6h-10.5
		c-0.3,0-0.6-0.3-0.6-0.6v-6h1.3c-0.1,0.3-0.1,0.5-0.1,0.8C152.9,160,154.9,162.1,157.5,162.1z M154.6,157.5c0-1.6,1.3-2.9,2.9-2.9
		c1.6,0,2.9,1.3,2.9,2.9c0,1.6-1.3,2.9-2.9,2.9C155.9,160.4,154.6,159.1,154.6,157.5z M162.8,154.2h-1.3c-0.3,0-0.6-0.3-0.6-0.6
		v-1.3c0-0.3,0.3-0.6,0.6-0.6h1.3c0.3,0,0.6,0.3,0.6,0.6v1.3C163.3,153.9,163.1,154.2,162.8,154.2z"/>
	<path fill="#FFFFFF" d="M210,150c-9.8,0-10,0.9-10,7.5s0.2,7.5,10,7.5s10-0.9,10-7.5S219.8,150,210,150z M213.2,157.8l-4.5,2
		c-0.4,0.2-0.7,0-0.7-0.4v-3.8c0-0.4,0.3-0.6,0.7-0.4l4.5,2C213.6,157.4,213.6,157.6,213.2,157.8z"/>
	<path fill="#FFFFFF" d="M55.4,165v-7.4h2.5l0.5-2.5h-3v-1.7c0-0.5,0.3-0.9,0.6-0.9h2.4V150H56c-2,0-3.4,1.7-3.4,3.7v1.4H50v2.5h2.5
		v7.4H55.4z"/>
</g>
</svg>
