<?xml version="1.0" encoding="utf-8"?>
<!-- Generator: Adobe Illustrator 19.1.0, SVG Export Plug-In . SVG Version: 6.00 Build 0)  -->
<!DOCTYPE svg PUBLIC "-//W3C//DTD SVG 1.1//EN" "http://www.w3.org/Graphics/SVG/1.1/DTD/svg11.dtd">
<svg version="1.1" id="Layer_1" xmlns="http://www.w3.org/2000/svg" xmlns:xlink="http://www.w3.org/1999/xlink" x="0px" y="0px"
	 viewBox="0 0 1640.1 250.2" enable-background="new 0 0 1640.1 250.2" xml:space="preserve">
<g>
	<path fill="#D4D4D4" d="M1158.5,152.4c0-14.3-8.6-27-21.8-32.4l-0.5-0.2c-2.6-1-5.5-1-8,0.1c-13,5.5-21.3,18.2-21.3,32.2v48.2h51.7
		V152.4z M1151.1,134.3c-3.9,0.6-7.1,3.1-8.6,6.6c-1.4-4.7-4.3-8.7-8.1-11.6c2.9-1.6,6.2-2.6,9.8-2.7
		C1146.9,128.9,1149.2,131.4,1151.1,134.3z M1141.5,198.2h-17.9v-50.5c0-7.1,3.6-13.4,9-17.2c5.4,3.8,9,10.1,9,17.2V198.2z
		 M1128.9,121.7c2.1-0.9,4.4-0.9,6.5,0l0.5,0.2c2,0.8,3.9,1.8,5.6,3c-3.3,0.4-6.3,1.6-9,3.2c-2.8-1.7-5.9-2.9-9.3-3.3
		C1125,123.6,1126.9,122.6,1128.9,121.7z M1120.8,126.7c3.6,0.1,7,1,9.9,2.7c-3.8,2.9-6.7,6.9-8.1,11.6c-1.5-3.5-4.7-6-8.6-6.6
		C1115.8,131.5,1118.1,128.9,1120.8,126.7z M1108.8,152.1c0-5.7,1.5-11.1,4.1-15.9c4.8,0.3,8.7,4.3,8.7,9.2v52.8h-12.8V152.1z
		 M1156.5,198.2h-13v-52.8c0-4.9,3.9-9,8.7-9.2c2.7,4.8,4.2,10.4,4.2,16.2V198.2z"/>
	<circle fill="#D4D4D4" cx="1201" cy="204.4" r="1"/>
	<path fill="#D4D4D4" d="M1202.7,123.3h15.7v-20.1h3.6v-8h-22.9v8h3.6V123.3z M1216.4,121.3h-11.7v-18.1h11.7V121.3z M1201.1,97.1
		h18.9v4h-18.9V97.1z"/>
	<path fill="#D4D4D4" d="M1202.7,159.3h15.7v-20.1h3.6v-8h-22.9v8h3.6V159.3z M1216.4,157.3h-11.7v-18.1h11.7V157.3z M1201.1,133.1
		h18.9v4h-18.9V133.1z"/>
	<circle fill="#D4D4D4" cx="1044.9" cy="204.4" r="1"/>
	<path fill="#D4D4D4" d="M1043,103.1h3.6v20.1h15.7v-20.1h3.6v-8H1043V103.1z M1060.3,121.3h-11.7v-18.1h11.7V121.3z M1045,97.1
		h18.9v4H1045V97.1z"/>
	<path fill="#D4D4D4" d="M1043,139.1h3.6v20.1h15.7v-20.1h3.6v-8H1043V139.1z M1060.3,157.3h-11.7v-18.1h11.7V157.3z M1045,133.1
		h18.9v4H1045V133.1z"/>
	<path fill="#D4D4D4" d="M1604.7,216.6c-6.1,0-11.1,5-11.1,11.1s5,11.1,11.1,11.1s11.1-5,11.1-11.1S1610.8,216.6,1604.7,216.6z
		 M1604.7,236.9c-5,0-9.1-4.1-9.1-9.1s4.1-9.1,9.1-9.1s9.1,4.1,9.1,9.1S1609.7,236.9,1604.7,236.9z"/>
	<path fill="#D4D4D4" d="M1621.3,227.7c0-3-0.8-5.8-2.2-8.3v-15.2h-5.2l-2.5-18.7h3.1v-6.2H1589v-5.8c0-0.6-0.4-1-1-1s-1,0.4-1,1
		v5.8h-12.2v6.2h5l-5.5,18.7h-19.7v0h-2.5v-1.9c0-0.6-0.4-1-1-1s-1,0.4-1,1v1.9h-3.6l-0.1,18.9h-4.5v6.9h4.3
		c-0.2,0.9-0.4,1.9-0.4,2.9c0,5.3,3.7,9.7,8.6,10.9h-32.4l-29.6-89.1c-2.7-6.6-9-10.8-16.1-10.8s-13.4,4.3-16.1,10.9l-5.1,15.4
		l-22-66.3c-2.7-6.6-9-10.8-16.1-10.8s-13.4,4.3-16.1,10.9l-11.4,34.3c-0.1,0.1-0.1,0.2-0.1,0.3l-35,105.2h-33.5v-10
		c1.3,1,3.4,2.3,5.8,2.3c3.9,0,6.9-3.3,7.1-3.4c0.2-0.2,0.3-0.5,0.3-0.7c0-0.3-0.1-0.5-0.3-0.7c-0.1-0.1-3.3-3.4-7.1-3.4
		c-2.4,0-4.5,1.2-5.7,2.2V227c2.3-0.4,4.2-2.2,4.7-4.4c0.6,0.2,1.3,0.3,2,0.3c3.2,0,5.9-2.6,5.9-5.9c0-1.6-0.7-3.1-1.8-4.2
		c1.1-1.1,1.8-2.6,1.8-4.2c0-3.2-2.6-5.9-5.9-5.9c-0.7,0-1.3,0.1-2,0.3c-0.6-2.6-2.9-4.5-5.7-4.5c-2.8,0-5.1,1.9-5.7,4.5
		c-0.6-0.2-1.3-0.3-2-0.3c-3.2,0-5.9,2.6-5.9,5.9c0,1.6,0.7,3.1,1.8,4.2c-1.1,1.1-1.8,2.6-1.8,4.2c0,3.2,2.6,5.9,5.9,5.9
		c0.7,0,1.3-0.1,2-0.3c0.5,2.3,2.4,4,4.7,4.4v7.5c-1.3-1-3.5-2.4-6-2.4c-3.9,0-6.9,3.3-7.1,3.4c-0.2,0.2-0.3,0.5-0.3,0.7
		c0,0.3,0.1,0.5,0.3,0.7c0.1,0.1,3.3,3.4,7.2,3.4c2.5,0,4.7-1.4,5.9-2.4v5.9h-30v-15c1.3,1,3.4,2.3,5.8,2.3c3.9,0,6.9-3.3,7.1-3.4
		c0.2-0.2,0.3-0.5,0.3-0.7c0-0.3-0.1-0.5-0.3-0.7c-0.1-0.1-3.3-3.4-7.1-3.4c-2.4,0-4.5,1.2-5.7,2.2V222c2.3-0.4,4.2-2.2,4.7-4.4
		c0.6,0.2,1.3,0.3,2,0.3c3.2,0,5.9-2.6,5.9-5.9c0-1.6-0.7-3.1-1.8-4.2c1.1-1.1,1.8-2.6,1.8-4.2c0-3.2-2.6-5.9-5.9-5.9
		c-0.7,0-1.3,0.1-2,0.3c-0.6-2.6-2.9-4.5-5.7-4.5s-5.1,1.9-5.7,4.5c-0.6-0.2-1.3-0.3-2-0.3c-3.2,0-5.9,2.6-5.9,5.9
		c0,1.6,0.7,3.1,1.8,4.2c-1.1,1.1-1.8,2.6-1.8,4.2c0,3.2,2.6,5.9,5.9,5.9c0.7,0,1.3-0.1,2-0.3c0.5,2.3,2.4,4,4.7,4.4v7.5
		c-1.3-1-3.5-2.4-6-2.4c-3.9,0-6.9,3.3-7.1,3.4c-0.2,0.2-0.3,0.5-0.3,0.7c0,0.3,0.1,0.5,0.3,0.7c0.1,0.1,3.3,3.4,7.2,3.4
		c2.5,0,4.7-1.4,5.9-2.4v10.9h-38.7v-12.1h-8v-161h-6.1v-22c0-9.9-6.1-18.4-14.8-21.9c-0.4-4.4-3.8-7.9-8.1-8.3V8.9h4v-2h-4V1.4h-2
		v5.5h-4v2h4v9.7c-4.3,0.5-7.7,4-8,8.3c-8.7,3.5-14.8,12-14.8,21.9v22h-5.9v66.8l-47.3-59.5V57.7h8.1v-2h-8.1V44.9h-2v10.8h-8.1v2
		h8.1v20.5l-47.2,59.4V70.8h-6.1v-22c0-9.9-6.1-18.4-14.8-21.9c-0.4-4.4-3.8-7.9-8.1-8.3V8.9h4v-2h-4V1.4h-2v5.5h-4v2h4v9.7
		c-4.3,0.5-7.7,4-8,8.3c-8.7,3.5-14.8,12-14.8,21.9v22h-5.9v161h-8.4v12.1h-45.6v-29.8c16.4-0.5,29.5-14,29.5-30.5
		c0-16.8-13.7-30.5-30.5-30.5c-15.7,0-28.7,11.8-30.3,27.3c-3.6-2.5-8-3.9-12.4-3.9c-12,0-21.8,9.8-21.8,21.8
		c0,11.7,9.2,21.2,20.8,21.7v23.9h-42.8V71.8h-15v-6.9c0-0.6-0.4-1-1-1s-1,0.4-1,1v6.9h-96.1v172.1h-29.8v-3.4h7v-10h-13v-3h6.7v-10
		h-21.7v-3h15.8v-10h-51.5v10h15.8v3h-21.7v10h6.7v3h-13v10h7v3.4h-31.8v-6.7h-29l-14.4-33.4c1.5-0.8,3-1.8,4.4-2.8v8.6
		c0,0.6,0.4,1,1,1h23.2c0.6,0,1-0.4,1-1v-13.9c0-5.7-4.6-10.3-10.3-10.3h-1.3c1.8-3.4,3.2-7,4.1-10.7H643c0.6,0,1-0.4,1-1v-13.9
		c0-5.7-4.6-10.3-10.3-10.3H629c-1.6,0-3.1,0.4-4.4,1c-1.1-3.4-2.5-6.7-4.4-9.8h10.4c0.6,0,1-0.4,1-1v-13.9
		c0-5.7-4.6-10.3-10.3-10.3h-4.6c-5.7,0-10.3,4.6-10.3,10.3v0.2c-3.8-2.5-7.9-4.4-12.2-5.7v-9.5c0-5.7-4.6-10.3-10.3-10.3h-4.6
		c-5.7,0-10.3,4.6-10.3,10.3v9.2c-4.8,1.3-9.3,3.4-13.4,6.2v-0.5c0-5.7-4.6-10.3-10.3-10.3h-4.6c-5.7,0-10.3,4.6-10.3,10.3v13.9
		c0,0.6,0.4,1,1,1H542c-1.9,3.1-3.3,6.5-4.4,10c-1.4-0.7-3-1.2-4.8-1.2h-4.6c-5.7,0-10.3,4.6-10.3,10.3v13.9c0,0.6,0.4,1,1,1h18
		c0.9,3.7,2.3,7.3,4.1,10.7h-0.4c-5.7,0-10.3,4.6-10.3,10.3v13.9c0,0.6,0.4,1,1,1h23.2c0.6,0,1-0.4,1-1v-8c1.4,0.9,2.8,1.8,4.2,2.6
		l-14.2,33.1h-29.3v6.7h-41.5c8.7-0.2,15.7-7.3,15.7-16c0-8.8-7.2-16-16-16c-2.4,0-4.6,0.5-6.7,1.5l-4.6-7.9l2.9-4.7
		c0.2-0.3,0.2-0.7,0-1c-0.2-0.3-0.5-0.5-0.9-0.5h-5.2c-0.6,0-1,0.4-1,1s0.4,1,1,1h3.5l-1.8,3h-23.6l6.2-10.2h8.7c0.6,0,1-0.4,1-1
		s-0.4-1-1-1h-9.2c-0.3,0-0.7,0.2-0.9,0.5l-12.9,21.2c-2.2-1.2-4.8-1.9-7.5-1.9c-8.8,0-16,7.2-16,16c0,8.7,7,15.8,15.7,16h-54.3
		c0.2-2.4,1.2-9.5,7.1-24.3c5.2-13,17.1-27,17.2-27.2l0.9-1.1l-19.6-7.3v-65.3c0-4.1-3.4-7.5-7.5-7.5h-26.9V86.3h-24.7v25.1h-26.9
		c-4.1,0-7.5,3.4-7.5,7.5v65.3l-19.6,7.3l0.9,1.1c0.1,0.1,12,14.2,17.2,27.2c5.9,14.7,6.9,21.9,7.1,24.3h-77v-31.7h18.9v4.3h2v-34.6
		h12.9v-8h-3.9v-26.1h3.7v-2h-12.7v-34.6h12.9v-8h-3.9V77.1h3.7v-2h-33.6V37.6h5.3v-6v-2v-6H193c0,0,0-0.1,0-0.1v-7.9
		c0-0.6-0.4-1-1-1s-1,0.4-1,1v7.9c0,0,0,0.1,0,0.1H89.9v6v2v6h5.3v65.6h-5.4v8h5.4v62.7h-5.4v8h5.4v62H73.7v-15l2.4-13.8
		c0.1-0.5-0.3-1.1-0.8-1.2c-0.5-0.1-1.1,0.3-1.2,0.8l-2.3,13.1H58c-0.6,0-1,0.4-1,1v15.1H44.4v-23.7h13c0.6,0,1-0.4,1-1s-0.4-1-1-1
		h-33c-0.6,0-1,0.4-1,1s0.4,1,1,1h13v23.7H24.7v-15.1c0-0.6-0.4-1-1-1H9.9l-2.3-13.1c-0.1-0.5-0.6-0.9-1.2-0.8
		c-0.5,0.1-0.9,0.6-0.8,1.2L8.1,229v15H0v2h9.1c0,0,0,0,0,0s0,0,0,0h14.7c0,0,0,0,0,0s0,0,0,0H58c0,0,0,0,0,0s0,0,0,0h14.7
		c0,0,0,0,0,0s0,0,0,0h212.5l0,0h81.3l0.2,0h149.4v0h130.4v0h31.8v3.3h2v-3.3h58v3.3h2v-3.3h185.6v3.3c0,0.6,0.4,1,1,1s1-0.4,1-1
		v-3.3h40.7v3.3c0,0.6,0.4,1,1,1c0.6,0,1-0.4,1-1v-3.3h316.4v3.3c0,0.6,0.4,1,1,1s1-0.4,1-1v-3.3h30v3.3c0,0.6,0.4,1,1,1s1-0.4,1-1
		v-3.3h317.8v-2h-30.5C1615.9,242.1,1621.3,235.6,1621.3,227.7z M1327,229.9c2.1,0,4,1.3,5,2.1c-1,0.8-2.8,2.1-4.9,2.1
		c-2.1,0-4-1.3-5-2.1C1323.1,231.2,1324.9,229.9,1327,229.9z M1313.3,238.4c-2.1,0-4-1.3-5-2.1c1-0.8,2.8-2.1,4.9-2.1
		c2.1,0,4,1.3,5,2.1C1317.3,237.1,1315.4,238.4,1313.3,238.4z M1327.9,220.9c-0.7,0-1.3-0.2-1.9-0.5c-0.8-0.4-1.4-1.1-1.7-1.9
		c1.3-0.9,2.4-2.3,2.8-4c0,0,0,0,0-0.1c0.2,0,0.5,0.1,0.8,0.1c0.9,0,1.7-0.2,2.4-0.5c0.9,0.7,1.5,1.8,1.5,3
		C1331.8,219.2,1330.1,220.9,1327.9,220.9z M1326.1,205.3c0.6-0.3,1.2-0.5,1.9-0.5c2.1,0,3.9,1.7,3.9,3.9c0,1.2-0.6,2.3-1.5,3
		c-0.7,0.5-1.5,0.9-2.4,0.9c-0.2,0-0.4,0-0.5-0.1c-0.1-2.3-1.2-4.3-2.9-5.5C1324.8,206.2,1325.4,205.6,1326.1,205.3z M1320.3,200.6
		c2,0,3.7,1.6,3.9,3.6c-0.6,0.5-1.1,1.1-1.4,1.8c-0.8-0.3-1.6-0.4-2.4-0.4c-0.9,0-1.7,0.2-2.5,0.4c-0.3-0.7-0.8-1.3-1.4-1.8
		C1316.5,202.2,1318.2,200.6,1320.3,200.6z M1312.6,204.8c0.7,0,1.3,0.2,1.9,0.5c0.7,0.4,1.3,1,1.6,1.7c-1.7,1.3-2.9,3.3-2.9,5.6
		c-0.2,0-0.4,0-0.5,0c-0.9,0-1.8-0.3-2.4-0.9c-0.9-0.7-1.5-1.8-1.5-3C1308.7,206.5,1310.4,204.8,1312.6,204.8z M1314.4,220.4
		c-0.6,0.3-1.2,0.5-1.9,0.5c-2.1,0-3.9-1.7-3.9-3.9c0-1.2,0.6-2.3,1.5-3c0.7,0.3,1.6,0.5,2.4,0.5c0.3,0,0.5,0,0.8-0.1
		c0.4,1.7,1.4,3.1,2.8,4.1C1315.8,219.4,1315.2,220,1314.4,220.4z M1315.1,212.7c0-2.8,2.3-5.2,5.2-5.2c2.8,0,5.2,2.3,5.2,5.2
		c0,0.5-0.1,0.9-0.2,1.3c-0.6,2.3-2.6,3.8-5,3.8C1317.4,217.9,1315.1,215.6,1315.1,212.7z M1316.4,221.5c0.6-0.6,1.2-1.2,1.5-2
		c0.7,0.3,1.5,0.4,2.3,0.4c0.8,0,1.6-0.1,2.3-0.4c0.4,0.8,0.9,1.5,1.5,2c-0.1,2-1.8,3.6-3.9,3.6S1316.5,223.5,1316.4,221.5z
		 M1295,224.9c2.1,0,4,1.3,5,2.1c-1,0.8-2.8,2.1-4.9,2.1c-2.1,0-4-1.3-5-2.1C1291.1,226.2,1292.9,224.9,1295,224.9z M1281.3,233.4
		c-2.1,0-4-1.3-5-2.1c1-0.8,2.8-2.1,4.9-2.1c2.1,0,4,1.3,5,2.1C1285.3,232.1,1283.4,233.4,1281.3,233.4z M1295.9,215.9
		c-0.7,0-1.3-0.2-1.9-0.5c-0.8-0.4-1.4-1.1-1.7-1.9c1.3-0.9,2.4-2.3,2.8-4c0,0,0,0,0-0.1c0.2,0,0.5,0.1,0.8,0.1
		c0.9,0,1.7-0.2,2.4-0.5c0.9,0.7,1.5,1.8,1.5,3C1299.8,214.2,1298.1,215.9,1295.9,215.9z M1294.1,200.3c0.6-0.3,1.2-0.5,1.9-0.5
		c2.1,0,3.9,1.7,3.9,3.9c0,1.2-0.6,2.3-1.5,3c-0.7,0.5-1.5,0.9-2.4,0.9c-0.2,0-0.4,0-0.5-0.1c-0.1-2.3-1.2-4.3-2.9-5.5
		C1292.8,201.2,1293.4,200.6,1294.1,200.3z M1288.3,195.6c2,0,3.7,1.6,3.9,3.6c-0.6,0.5-1.1,1.1-1.4,1.8c-0.8-0.3-1.6-0.4-2.4-0.4
		c-0.9,0-1.7,0.2-2.5,0.4c-0.3-0.7-0.8-1.3-1.4-1.8C1284.5,197.2,1286.2,195.6,1288.3,195.6z M1280.6,199.8c0.7,0,1.3,0.2,1.9,0.5
		c0.7,0.4,1.3,1,1.6,1.7c-1.7,1.3-2.9,3.3-2.9,5.6c-0.2,0-0.4,0-0.5,0c-0.9,0-1.8-0.3-2.4-0.9c-0.9-0.7-1.5-1.8-1.5-3
		C1276.7,201.5,1278.4,199.8,1280.6,199.8z M1282.4,215.4c-0.6,0.3-1.2,0.5-1.9,0.5c-2.1,0-3.9-1.7-3.9-3.9c0-1.2,0.6-2.3,1.5-3
		c0.7,0.3,1.6,0.5,2.4,0.5c0.3,0,0.5,0,0.8-0.1c0.4,1.7,1.4,3.1,2.8,4.1C1283.8,214.4,1283.2,215,1282.4,215.4z M1283.1,207.7
		c0-2.8,2.3-5.2,5.2-5.2c2.8,0,5.2,2.3,5.2,5.2c0,0.5-0.1,0.9-0.2,1.3c-0.6,2.3-2.6,3.8-5,3.8
		C1285.4,212.9,1283.1,210.6,1283.1,207.7z M1284.4,216.5c0.6-0.6,1.2-1.2,1.5-2c0.7,0.3,1.5,0.4,2.3,0.4c0.8,0,1.6-0.1,2.3-0.4
		c0.4,0.8,0.9,1.5,1.5,2c-0.1,2-1.8,3.6-3.9,3.6S1284.5,218.5,1284.4,216.5z M1210.6,20.5c3.4,0,6.3,2.4,6.9,5.6
		c-2.2-0.6-4.4-1-6.8-1h-0.3c-2.4,0-4.6,0.4-6.8,1C1204.3,22.9,1207.2,20.5,1210.6,20.5z M1188.8,48.8c0-12,9.7-21.7,21.7-21.7h0.3
		c12,0,21.7,9.7,21.7,21.7v22h-43.7V48.8z M1054.5,20.5c3.4,0,6.3,2.4,6.9,5.6c-2.2-0.6-4.4-1-6.8-1h-0.3c-2.4,0-4.6,0.4-6.8,1
		C1048.2,22.9,1051.1,20.5,1054.5,20.5z M1032.6,48.8c0-12,9.7-21.7,21.7-21.7h0.3c12,0,21.7,9.7,21.7,21.7v22h-43.7V48.8z
		 M1039.2,231.8v-42.7c0-7.3,6-13.3,13.3-13.3c8.8,0,16,7.2,16,16v40H1039.2z M1052.5,173.8c-8.5,0-15.3,6.9-15.3,15.3v42.7h-10.4
		V81.6h55.6v150.2h-11.9v-40C1070.5,181.9,1062.4,173.8,1052.5,173.8z M1180.9,231.8h-96.5v-14.7h96.5V231.8z M1238.5,72.8v6.8
		h-55.6v-6.8H1238.5z M1182.9,81.6h55.6v150.2h-11.9v-40c0-9.9-8.1-18-18-18c-8.5,0-15.3,6.9-15.3,15.3v42.7h-10.4v-91.7V81.6z
		 M1195.3,231.8v-42.7c0-7.3,6-13.3,13.3-13.3c8.8,0,16,7.2,16,16v40H1195.3z M1132.7,80.1l48.2,60.7v74.3h-96.5v-74.3L1132.7,80.1z
		 M1082.4,72.8v6.8h-55.6v-6.8H1082.4z M1018.4,233.8h64v0h100.5v0h63.6v10.1h-228.1V233.8z M91.9,25.5h119.6v4H91.9V25.5z
		 M91.9,31.6h119.6v4H91.9V31.6z M474.4,213.9c7.7,0,14,6.3,14,14s-6.3,14-14,14c-7.4,0-13.4-5.8-14-13h14.6c0.4,0,0.7-0.2,0.9-0.5
		s0.2-0.7,0-1l-7.2-12.3C470.5,214.3,472.4,213.9,474.4,213.9z M460.4,226.9c0.3-4.6,2.9-8.5,6.5-10.9l6.3,10.9H460.4z M466,214.3
		c-4.3,2.7-7.2,7.3-7.5,12.6h-8.2l11.7-19.5L466,214.3z M460.3,206.3l-11.6,19.3l-10.8-19.3H460.3z M408.2,227.9c0-7.7,6.3-14,14-14
		c2.3,0,4.5,0.6,6.5,1.6l-7.6,12.5c-0.3,0.5-0.1,1.1,0.3,1.4c0.2,0.1,0.3,0.1,0.5,0.1c0.3,0,0.7-0.2,0.9-0.5l7.6-12.5
		c3.5,2.5,5.8,6.7,5.8,11.4c0,7.7-6.3,14-14,14S408.2,235.7,408.2,227.9z M438.2,227.9c0-5.4-2.7-10.2-6.8-13.1l4.7-7.7l11.9,21.2
		c0.2,0.3,0.5,0.5,0.9,0.5h9.5c0.5,8.3,7.3,14.8,15.7,15h-51.6C431.2,243.8,438.2,236.6,438.2,227.9z M372.9,218.9
		c-6.1,15.1-7.1,22.5-7.3,25h-38.1v-27.9l13,5c0.1,0,0.2,0.1,0.4,0.1c0.4,0,0.8-0.2,0.9-0.6c0.2-0.5-0.1-1.1-0.6-1.3l-13.7-5.3
		v-15.8l22.8,8.8c0.1,0,0.2,0.1,0.4,0.1c0.4,0,0.8-0.2,0.9-0.6c0.2-0.5-0.1-1.1-0.6-1.3l-23.5-9.1v-26.8l62.1,23.1
		C386.6,195.9,377.4,207.6,372.9,218.9z M336.8,88.3V93h-20.7v-4.8H336.8z M316.1,95h20.7v16.3h-20.7V95z M287.2,113.3h26.9h24.7
		h26.9c3,0,5.5,2.5,5.5,5.5v2.4h-89.5v-2.4C281.7,115.8,284.2,113.3,287.2,113.3z M281.7,123.3h89.5v60.1l-44.8-16.7l-44.8,16.7
		V123.3z M280.1,218.9c-4.6-11.3-13.7-23-16.7-26.6l62.1-23.1V196l-23.5,9.1c-0.5,0.2-0.8,0.8-0.6,1.3c0.2,0.4,0.5,0.6,0.9,0.6
		c0.1,0,0.2,0,0.4-0.1l22.8-8.8v15.8l-13.7,5.3c-0.5,0.2-0.8,0.8-0.6,1.3c0.2,0.4,0.5,0.6,0.9,0.6c0.1,0,0.2,0,0.4-0.1l13-5v27.9
		h-38.1C287.2,241.4,286.1,234.1,280.1,218.9z M206.3,243.9h-73.5v-4v-2v-4v-2v-28.2c0-6-4.9-10.9-10.9-10.9h-1.1
		c-6,0-10.9,4.9-10.9,10.9v28.2v2v4v2v4H97.1v-62h109.1v4.4h0v6v2v4v2v4v2v6h0V243.9z M111.8,239.9h18.9v4h-18.9V239.9z
		 M130.7,231.9h-18.9v-28.2c0-4.9,4-8.9,8.9-8.9h1.1c4.9,0,8.9,4,8.9,8.9V231.9z M130.7,233.9v4h-18.9v-4H130.7z M208.3,198.2v-4
		h18.9v4H208.3z M208.3,204.2v-4h18.9v4H208.3z M227.2,192.2h-18.9v-4h18.9V192.2z M208.3,210.2v-4h18.9v4H208.3z M227.2,186.2
		h-18.9v-4.4h18.9V186.2z M97.1,111.2h109.1v4.4h0v6v2v4v2v4v2v6h0v26.3h0v6H97.1V111.2z M236.2,173.9h-27.9v-4h27.9V173.9z
		 M226.2,167.9v-20.1h4v20.1H226.2z M224.2,167.9h-4v-20.1h4V167.9z M218.2,167.9h-4v-20.1h4V167.9z M212.2,167.9h-3.9v-20.1h3.9
		V167.9z M208.3,133.6v-4h18.9v4H208.3z M227.2,127.6h-18.9v-4h18.9V127.6z M208.3,135.6h18.9v4h-18.9V135.6z M227.2,121.6h-18.9v-4
		h18.9V121.6z M236.2,167.9h-4v-20.1h4V167.9z M208.3,145.8v-4.2h18.9v4.2H208.3z M227.2,115.6h-18.9v-4.4h18.9V115.6z M226.2,97.2
		V77.1h4v20.1H226.2z M224.2,97.2h-4V77.1h4V97.2z M218.2,97.2h-4V77.1h4V97.2z M236.2,99.2v4h-27.9v-4H236.2z M206.3,97.2
		L206.3,97.2l0,6H97.1V37.6h109.1V97.2z M236.2,97.2h-4V77.1h4V97.2z M212.2,77.1v20.1h-3.9V77.1H212.2z M91.8,109.2v-4h4.4h1h109.1
		h1h32.8v4h-32.8v0H96.1v0H91.8z M91.8,179.9v-4h4.4v0h111.1v0h32.8v4h-32.8h-1H97.1h-1H91.8z M71.7,229.9v6H59v-6H71.7z M59,237.9
		h12.7v6H59V237.9z M39.4,220.2h3v23.7h-3V220.2z M22.7,229.9v6H10.1v-6H22.7z M10.1,237.9h12.7v6H10.1V237.9z M615.5,237.2h-6
		l-13.1-30.3c1.7-0.6,3.4-1.3,5-2.2L615.5,237.2z M570,227.8h23.2c0.6,0,1-0.4,1-1V213c0-1.8-0.5-3.5-1.3-5c0.5-0.1,1.1-0.3,1.6-0.5
		l12.8,29.7h-51.5l12.7-29.5c0.6,0.2,1.1,0.3,1.7,0.4c-0.8,1.4-1.2,3.1-1.2,4.8v13.9C569,227.4,569.4,227.8,570,227.8z M580.6,215.4
		H571V213c0-4.6,3.7-8.3,8.3-8.3h1.3v10.5C580.6,215.3,580.6,215.4,580.6,215.4z M573.5,173.3c-0.2-0.2-0.4-0.4-0.7-0.6
		c0-0.1-0.1-0.1-0.1-0.1c-3.3-3.3-4.5-8.3-2.9-12.8c1.7-4.7,6.3-8,11.4-8c5.7,0,10.8,4.2,11.9,9.8c1,5-1.3,10.1-5.7,12.7
		C583,177,577.4,176.5,573.5,173.3z M582.6,204.6h1.3c4.6,0,8.3,3.7,8.3,8.3v2.5h-9.7c0-0.1,0-0.2,0-0.2V204.6z M592.2,217.4v8.4
		H571v-8.4H592.2z M607.6,195.7v2.7c-4.8,3.7-10.2,6.3-16,7.7c-1.9-2.2-4.7-3.5-7.8-3.5h-1.3V178c3.3-0.3,6.3-1.9,8.6-4.2l17.5,17.5
		C608,192.6,607.6,194.1,607.6,195.7z M630.9,208.6h-21.2v-8.4h21.2V208.6z M619.3,198.2h-9.7v-2.5c0-4.6,3.7-8.3,8.3-8.3h1.3V198
		C619.3,198.1,619.3,198.1,619.3,198.2z M622.6,187.4c4.6,0,8.3,3.7,8.3,8.3v2.5h-9.7c0-0.1,0-0.2,0-0.2v-10.5H622.6z M619,185.4h-1
		c-3.4,0-6.3,1.6-8.2,4.1l-17.2-17.2c1.2-1.6,2.1-3.5,2.5-5.6c0.2-0.8,0.2-1.6,0.3-2.4h23.5v9.4c0,0.6,0.4,1,1,1h3.6
		C622.4,178.5,620.9,182.1,619,185.4z M642,172.7h-21.2v-8.4H642V172.7z M632.3,162.1v-10.5h1.3c4.6,0,8.3,3.7,8.3,8.3v2.5h-9.7
		C632.3,162.3,632.3,162.2,632.3,162.1z M629,151.6h1.3v10.5c0,0.1,0,0.2,0,0.2h-9.7v-2.5C620.7,155.3,624.5,151.6,629,151.6z
		 M620,128.1v-10.5h1.3c4.6,0,8.3,3.7,8.3,8.3v2.5H620C620,128.3,620,128.2,620,128.1z M608.4,125.9c0-4.6,3.7-8.3,8.3-8.3h1.3v10.5
		c0,0.1,0,0.2,0,0.2h-9.7V125.9z M608.4,130.4h21.2v8.4h-21.2V130.4z M607.4,140.7h10.5c2.1,3.4,3.8,7.1,4.9,10.9
		c-2.5,1.9-4.1,4.9-4.1,8.2v2.5h-23.6c-0.4-3-1.7-5.9-3.8-8.1l15.1-15.1v0.6C606.4,140.3,606.9,140.7,607.4,140.7z M594.2,124.8
		v-2.3c4.4,1.4,8.5,3.4,12.2,6.1v7.8c0,0-0.1,0-0.1,0.1l-16.5,16.5c-0.5-0.4-1-0.7-1.5-1c-1.8-1.1-3.8-1.7-5.8-1.9v-24.2h10.6
		C593.8,125.8,594.2,125.3,594.2,124.8z M582.6,113.1v-10.5h1.3c4.6,0,8.3,3.7,8.3,8.3v2.5h-9.7
		C582.6,113.3,582.6,113.2,582.6,113.1z M571,110.9c0-4.6,3.7-8.3,8.3-8.3h1.3v10.5c0,0.1,0,0.2,0,0.2H571V110.9z M571,115.4h21.2
		v8.4H571V115.4z M555.5,128.8c4.1-3,8.6-5.2,13.4-6.6v2.5c0,0.6,0.4,1,1,1h10.6v24.2c-3,0.1-6,1.2-8.4,3.2c0,0,0,0,0,0l-16.6-16.6
		V128.8z M543.9,128.1v-10.5h1.3c4.6,0,8.3,3.7,8.3,8.3v2.5h-9.7C543.9,128.3,543.9,128.2,543.9,128.1z M532.3,125.9
		c0-4.6,3.7-8.3,8.3-8.3h1.3v10.5c0,0.1,0,0.2,0,0.2h-9.7V125.9z M532.3,138.7v-8.4h21.2v8.4H532.3z M544.4,140.7h10.1
		c0.6,0,1-0.4,1-1v-0.3l15.2,15.2c-2,2.2-3.2,4.9-3.5,7.8h-24v-2.5c0-3.2-1.5-6.1-3.8-8C540.5,148,542.2,144.2,544.4,140.7z
		 M531.6,162.1v-10.5h1.3c4.6,0,8.3,3.7,8.3,8.3v2.5h-9.7C531.5,162.3,531.6,162.2,531.6,162.1z M520,159.9c0-4.6,3.7-8.3,8.3-8.3
		h1.3v10.5c0,0.1,0,0.2,0,0.2H520V159.9z M520,172.7v-8.4h21.2v8.4H520z M532.3,195.7c0-4.6,3.7-8.3,8.3-8.3h1.3V198
		c0,0.1,0,0.2,0,0.2h-9.7V195.7z M553.5,208.6h-21.2v-8.4h21.2V208.6z M553.5,198.2h-9.7c0-0.1,0-0.2,0-0.2v-10.5h1.3
		c4.6,0,8.3,3.7,8.3,8.3V198.2z M553.9,190.1c-1.8-2.8-5-4.7-8.6-4.7h-1.9c-1.9-3.4-3.4-7-4.3-10.7h3.2c0.6,0,1-0.4,1-1v-9.4h23.9
		c0,1.5,0.3,3,0.8,4.4c0.6,1.7,1.6,3.2,2.8,4.6L553.9,190.1z M555.5,199.1v-3.4c0-1.3-0.3-2.6-0.7-3.7l17.3-17.3
		c2.4,2,5.3,3.2,8.5,3.3v24.6h-1.3c-3.2,0-6,1.4-7.9,3.7C565.6,205,560.3,202.6,555.5,199.1z M561.5,205c1.7,0.8,3.3,1.5,5.1,2.1
		l-13,30.1h-6L561.5,205z M518.2,239.2h126.4v4.7H518.2V239.2z M685.7,206.4h47.5v6h-47.5V206.4z M701.4,214.4h16v3h-16V214.4z
		 M679.8,219.4h59.3v6h-59.3V219.4z M686.4,227.5h46v3h-46V227.5z M673.5,232.5h71.9v6h-71.9V232.5z M680.4,243.9v-3.4h58v3.4H680.4
		z M786.9,239.9h18.9v4h-18.9V239.9z M805.8,213.9h-18.9v-25.2c0-4.9,4-8.9,8.9-8.9h1.1c4.9,0,8.9,4,8.9,8.9V213.9z M805.8,215.9v4
		h-18.9v-4H805.8z M805.8,221.9v4h-18.9v-4H805.8z M805.8,227.9v4h-18.9v-4H805.8z M805.8,233.9v4h-18.9v-4H805.8z M807.8,239.9v-2
		v-4v-2v-4v-2v-4v-2v-4v-2v-25.2c0-6-4.9-10.9-10.9-10.9h-1.1c-6,0-10.9,4.9-10.9,10.9v25.2v2v4v2v4v2v4v2v4v2v4h-12.7V85.4h109.1
		v158.5h-16.1v-18.2h3.6v-8h-22.9v8h3.6v18.2h-15.3v-18.2h3.6v-8h-22.9v8h3.6v18.2h-10.7V239.9z M867.2,73.8
		C867.3,73.8,867.3,73.8,867.2,73.8c0.1,0,0.1,0,0.1,0h3.9v9.6h-8v-9.6H867.2z M861.2,83.4h-8v-9.6h8V83.4z M851.2,83.4h-8v-9.6h8
		V83.4z M841.2,83.4h-8v-9.6h8V83.4z M831.2,83.4h-8v-9.6h8V83.4z M821.2,83.4h-8v-9.6h8V83.4z M811.2,83.4h-8v-9.6h8V83.4z
		 M801.2,83.4h-8v-9.6h8V83.4z M791.2,83.4h-8v-9.6h8V83.4z M781.2,83.4h-9v-9.6h9V83.4z M847.9,223.8v-4h18.9v4H847.9z
		 M851.5,225.8h11.7v18.1h-11.7V225.8z M816.9,223.8v-4h18.9v4H816.9z M820.5,225.8h11.7v18.1h-11.7V225.8z M881.3,83.4h-8.1v-9.6
		h8.1V83.4z M969.8,155.2c15.7,0,28.5,12.8,28.5,28.5c0,15.4-12.2,27.9-27.5,28.5v-7.4c9.1-0.6,16.3-8.1,16.3-17.3c0-0.6-0.4-1-1-1
		s-1,0.4-1,1c0,8.1-6.3,14.8-14.3,15.3v-15.1c4-0.5,7.2-4,7.2-8.2c0-0.6-0.4-1-1-1s-1,0.4-1,1c0,3.1-2.2,5.6-5.2,6.2v-20.3
		c0-0.6-0.4-1-1-1c-0.6,0-1,0.4-1,1v12.3c-3-0.5-5.3-3-5.3-6.2c0-0.6-0.4-1-1-1s-1,0.4-1,1c0,4.2,3.2,7.7,7.3,8.2v6.8
		c0,0.1-0.1,0.2-0.1,0.3s0,0.2,0.1,0.3v8.6c-8-0.5-14.4-7.2-14.4-15.3c0-0.6-0.4-1-1-1s-1,0.4-1,1c0,9.3,7.3,16.8,16.4,17.3v5.8
		c0,0.1-0.1,0.2-0.1,0.3s0,0.2,0.1,0.3v8c-7.8-0.3-15.2-3.8-20.4-9.7c0.3-1.4,0.4-2.8,0.4-4.2c0-6.3-2.7-12.2-7.4-16.4
		C942.3,166.9,954.7,155.2,969.8,155.2z M907.3,198.3c0-10.9,8.9-19.8,19.8-19.8c4.6,0,9.1,1.6,12.6,4.6c4.5,3.8,7.1,9.3,7.1,15.2
		c0,1.4-0.2,2.8-0.5,4.2c-1.9,8.7-9.5,15-18.3,15.5v-7.6c4.1-0.5,7.3-4,7.3-8.2c0-0.6-0.4-1-1-1s-1,0.4-1,1c0,3.1-2.3,5.7-5.3,6.2
		v-20c0-0.6-0.4-1-1-1s-1,0.4-1,1v9.6c-3-0.5-5.3-3.1-5.3-6.2c0-0.6-0.4-1-1-1s-1,0.4-1,1c0,4.2,3.2,7.7,7.3,8.2v18
		C915.6,217.5,907.3,208.8,907.3,198.3z M928.1,243.9V220c9.1-0.4,17-6.6,19.8-15.2c5.5,5.7,13,9.1,21,9.4v29.8H928.1z
		 M1604.7,242.4c-8.1,0-14.7-6.6-14.7-14.7c0-8.1,6.6-14.7,14.7-14.7s14.7,6.6,14.7,14.7C1619.3,235.8,1612.8,242.4,1604.7,242.4z
		 M1562.4,223h26.3c-0.5,1.5-0.7,3.1-0.7,4.8c0,1.1,0.1,2.2,0.3,3.2h-20C1567.7,227.5,1565.5,224.6,1562.4,223z M1589.4,221
		L1589.4,221l-13.2,0v-14.7h18.6v8h0.1C1592.5,216,1590.6,218.3,1589.4,221z M1617.1,216.7c-3.1-3.4-7.5-5.6-12.4-5.6
		c-2.9,0-5.5,0.7-7.9,2v-6.8h16.2h4.1V216.7z M1605.4,185.6l2.6,18.7h-11.3v-18.7H1605.4z M1611.8,204.3h-1.7l-2.6-18.7h1.9
		L1611.8,204.3z M1576.9,181.4h35.6v2.2h-35.6V181.4z M1582,185.6h12.8v18.7h-18.2L1582,185.6z M1574.2,206.3l0,14.7h-18.6v-14.7
		H1574.2z M1553.6,206.3v16c-2,0.7-3.7,1.9-5.1,3.5l0.1-19.5H1553.6z M1544,225.2h2.5v2.4h0l0,0.5h-2.5V225.2z M1547.9,233
		c0-5.1,4.2-9.3,9.3-9.3c5.1,0,9.3,4.2,9.3,9.3c0,5.1-4.2,9.3-9.3,9.3C1552.1,242.3,1547.9,238.1,1547.9,233z M1568.5,233
		C1568.5,233,1568.5,232.9,1568.5,233l20.3,0c1.8,5.4,6.3,9.6,11.9,11h-40.8C1564.9,242.7,1568.5,238.3,1568.5,233z M1479.8,243.9
		l-18.8-56.5c7.2-2.4,15.4-1.5,22,2.3c3.7,2.5,7.3,3.7,10.9,3.7c2.8,0,5.7-0.8,8.6-2.3l17.5,52.8H1479.8z M1462.3,155.6
		c2.4-5.8,7.9-9.6,14.2-9.6s11.9,3.8,14.2,9.5l11.2,33.6c-6,3.3-11.5,3-17.7-1.2c-7.2-4.1-16-5-23.7-2.5l-4-12.1L1462.3,155.6z
		 M1403.1,104.8c2.4-5.8,7.9-9.6,14.2-9.6s11.9,3.8,14.2,9.5l11.2,33.6c-4.6,2.6-9.2,3.5-13.8,2.6c0,0-0.1,0-0.1,0
		c-4.3-0.3-8.6-1.6-12.7-2.8c-7.6-2.2-15.5-4.5-23.7-1.1L1403.1,104.8z M1391.5,139.5c8.1-4.2,15.8-1.9,24,0.4
		c4.2,1.2,8.6,2.5,13,2.9c1.3,0.3,2.6,0.4,3.9,0.4c3.6,0,7.3-1,10.9-3l15.4,46.4c0,0.2,0,0.4,0,0.5c0.1,0.2,0.2,0.3,0.3,0.4
		l18.7,56.3h-120.9L1391.5,139.5z"/>
	<path fill="#D4D4D4" d="M1583.5,208.7h-4.2c-0.6,0-1,0.4-1,1s0.4,1,1,1h4.2c0.6,0,1-0.4,1-1S1584.1,208.7,1583.5,208.7z"/>
	<path fill="#D4D4D4" d="M1558.7,210.7h12.2c0.6,0,1-0.4,1-1s-0.4-1-1-1h-12.2c-0.6,0-1,0.4-1,1S1558.2,210.7,1558.7,210.7z"/>
	<path fill="#D4D4D4" d="M1558.7,214.7h12.2c0.6,0,1-0.4,1-1s-0.4-1-1-1h-12.2c-0.6,0-1,0.4-1,1S1558.2,214.7,1558.7,214.7z"/>
	<path fill="#D4D4D4" d="M1564.3,233c0-3.9-3.2-7-7-7s-7,3.2-7,7s3.2,7,7,7S1564.3,236.8,1564.3,233z M1552.2,233c0-2.8,2.3-5,5-5
		s5,2.3,5,5s-2.3,5-5,5S1552.2,235.7,1552.2,233z"/>
	<path fill="#D4D4D4" d="M1304.3,89.3h28c5.7,0,10.4-4.7,10.4-10.5c0-5.7-4.5-10-10.9-10.5l-1-0.1l-0.2-0.9
		c-1.2-6.6-6.8-11.4-13.3-11.4c-4.1,0-7.7,1.5-10.2,4.1c-2.5,2.7-3.7,6.5-3.4,10.9l0.1,1l-1,0.2c-4.4,1.1-7,4.4-7,8.6
		C1295.8,85.5,1299.6,89.3,1304.3,89.3z M1303.3,74.2l2.6-0.6l-0.2-2.7c-0.3-3.8,0.7-7,2.9-9.4l0,0c2.1-2.3,5.1-3.5,8.7-3.5
		c5.6,0,10.4,4.1,11.4,9.7l0.4,2.5l2.5,0.2c5.3,0.4,9.1,3.9,9.1,8.5c0,4.7-3.8,8.5-8.4,8.5h-28c-3.5,0-6.4-2.9-6.4-6.5
		C1297.8,77.5,1299.8,75.1,1303.3,74.2z"/>
	<path fill="#D4D4D4" d="M700.6,57.9h28c5.7,0,10.4-4.7,10.4-10.5c0-5.7-4.5-10-10.9-10.5l-1-0.1l-0.2-0.9
		c-1.1-6.6-6.8-11.4-13.3-11.4c-4.1,0-7.7,1.5-10.1,4.1c-2.5,2.7-3.7,6.5-3.4,10.9l0.1,1l-1,0.2c-4.4,1.1-7,4.4-7,8.6
		C692.2,54.1,696,57.9,700.6,57.9z M699.7,42.8l2.6-0.6l-0.2-2.7c-0.3-3.8,0.7-7,2.9-9.4l0,0c2.1-2.3,5.1-3.5,8.7-3.5
		c5.6,0,10.4,4.1,11.4,9.7l0.4,2.5l2.6,0.2c5.3,0.4,9.1,3.9,9.1,8.5c0,4.7-3.8,8.5-8.4,8.5h-28c-3.5,0-6.4-2.9-6.4-6.5
		C694.2,46.1,696.2,43.7,699.7,42.8z"/>
	<path fill="#D4D4D4" d="M650.9,38.3h20.5c4.4,0,7.9-3.6,7.9-8c0-4.3-3.4-7.6-8.2-8l-0.5,0l-0.1-0.5c-0.9-5-5.1-8.6-10-8.6
		c-3.1,0-5.8,1.1-7.6,3.1c-1.9,2.1-2.8,4.9-2.5,8.2l0,0.5l-0.5,0.1c-3.3,0.9-5.3,3.3-5.3,6.6C644.5,35.4,647.3,38.3,650.9,38.3z
		 M650.3,27.2l2.2-0.5l-0.2-2.2c-0.2-2.7,0.5-5,2-6.7l0,0c1.5-1.6,3.7-2.5,6.2-2.5c4,0,7.4,2.9,8.1,6.9l0.3,2l2.1,0.2
		c3.8,0.3,6.4,2.7,6.4,6c0,3.3-2.6,6-5.9,6h-20.5c-2.4,0-4.4-2-4.4-4.5C646.5,29.5,647.9,27.8,650.3,27.2z"/>
	<path fill="#D4D4D4" d="M942.9,57.3h20.5c4.4,0,7.9-3.6,7.9-8c0-4.3-3.4-7.6-8.2-8l-0.5,0l-0.1-0.5c-0.9-5-5.1-8.6-10-8.6
		c-3.1,0-5.8,1.1-7.6,3.1c-1.9,2.1-2.8,4.9-2.5,8.2l0,0.5l-0.5,0.1c-3.3,0.9-5.3,3.3-5.3,6.6C936.5,54.4,939.4,57.3,942.9,57.3z
		 M942.3,46.2l2.2-0.5l-0.2-2.2c-0.2-2.7,0.5-5,2-6.7l0,0c1.5-1.6,3.7-2.5,6.2-2.5c4,0,7.4,2.9,8.1,6.9l0.3,2l2.1,0.2
		c3.8,0.3,6.4,2.7,6.4,6c0,3.3-2.6,6-5.9,6h-20.5c-2.4,0-4.4-2-4.4-4.5C938.5,48.5,939.9,46.8,942.3,46.2z"/>
	<path fill="#D4D4D4" d="M486.9,84.3h20.5c4.4,0,7.9-3.6,7.9-8c0-4.3-3.4-7.6-8.2-8l-0.5,0l-0.1-0.5c-0.9-5-5.1-8.6-10-8.6
		c-3.1,0-5.8,1.1-7.6,3.1c-1.9,2.1-2.8,4.9-2.5,8.2l0,0.5l-0.5,0.1c-3.3,0.9-5.3,3.3-5.3,6.6C480.4,81.4,483.3,84.3,486.9,84.3z
		 M486.3,73.2l2.2-0.5l-0.2-2.2c-0.2-2.7,0.5-5,2-6.7l0,0c1.5-1.6,3.7-2.5,6.2-2.5c4,0,7.4,2.9,8.1,6.9l0.3,2l2.1,0.2
		c3.8,0.3,6.4,2.7,6.4,6c0,3.3-2.6,6-5.9,6h-20.5c-2.4,0-4.4-2-4.4-4.5C482.4,75.5,483.8,73.8,486.3,73.2z"/>
	<circle fill="#D4D4D4" cx="689.8" cy="222.4" r="1"/>
	<circle fill="#D4D4D4" cx="729" cy="222.4" r="1"/>
	<circle fill="#D4D4D4" cx="736.3" cy="235.5" r="1"/>
	<circle fill="#D4D4D4" cx="682.5" cy="235.5" r="1"/>
	<circle fill="#D4D4D4" cx="695.7" cy="209.4" r="1"/>
	<circle fill="#D4D4D4" cx="723.1" cy="209.4" r="1"/>
	<path fill="#D4D4D4" d="M1639.1,52.8h-11.5c0-0.1,0-0.1,0-0.2l0.2-17.8h11.3c0.6,0,1-0.4,1-1s-0.4-1-1-1h-46.2l13-7.1l-8.2-10
		l-17.1,17.1h-8.8V21.4h6c0.6,0,1-0.4,1-1s-0.4-1-1-1h-14c-0.6,0-1,0.4-1,1s0.4,1,1,1h6v11.4h-66.4c-0.6,0-1,0.4-1,1s0.4,1,1,1h10.1
		v17.8c0,0.1,0,0.1,0,0.2h-10.1c-0.6,0-1,0.4-1,1s0.4,1,1,1h45.8l-14,7.6l8.2,10l18.1-18.1l4.6,11.6h-9.6v-3.4c0-0.6-0.4-1-1-1
		s-1,0.4-1,1v15.5c0,0.6,0.4,1,1,1s1-0.4,1-1V74h13V76c0,0.6,0.4,1,1,1s1-0.4,1-1V74h13.4v3.8c0,0.6,0.4,1,1,1s1-0.4,1-1v-4.8
		c0,0,0,0,0,0v-6.2c0,0,0,0,0,0v-4.4c0-0.6-0.4-1-1-1s-1,0.4-1,1v3.4h-9.8l4.4-11h59.6c0.6,0,1-0.4,1-1S1639.6,52.8,1639.1,52.8z
		 M1625.6,52.8h-20.5l0.2-18h20.4l-0.2,17.8C1625.6,52.7,1625.6,52.7,1625.6,52.8z M1603.3,34.8l-0.2,18h-20.4l0.2-14.6l6.3-3.4
		H1603.3z M1563,52.8l6-6c0.5,0.3,1,0.4,1.6,0.4c1.8,0,3.2-1.4,3.2-3.2c0-0.3,0-0.5-0.1-0.8l7.2-3.9l-0.2,13.5H1563z M1569.4,44
		c0-0.7,0.5-1.2,1.2-1.2s1.2,0.5,1.2,1.2c0,0.7-0.5,1.2-1.2,1.2S1569.4,44.7,1569.4,44z M1602.8,25.1L1577.2,39l20.3-20.3
		L1602.8,25.1z M1572.2,41.3c-0.5-0.3-1-0.4-1.6-0.4c-1.8,0-3.2,1.4-3.2,3.2c0,0.3,0,0.5,0.1,0.8l-7.2,3.9l0.2-14h18.2L1572.2,41.3z
		 M1515.5,52.6V34.8h20.5l-0.2,18c0,0,0,0,0,0h-20.4C1515.5,52.7,1515.5,52.7,1515.5,52.6z M1537.8,52.8
		C1537.8,52.8,1537.8,52.8,1537.8,52.8l0.2-18h20.4l-0.2,15.1l-5.4,2.9H1537.8z M1538.3,63l25.6-13.9l-20.3,20.3L1538.3,63z
		 M1556.6,72v-4.2h13V72H1556.6z M1584.9,72h-13.4v-4.2h13.4V72z M1573,65.8h-1.4v-1.5c0-0.6-0.4-1-1-1s-1,0.4-1,1v1.5h-1.3l-4.4-11
		h13.4L1573,65.8z"/>
	<path fill="#D4D4D4" d="M577.1,159.2c-4.4,3.7-1.7,11.1,4.1,11.1c3,0,5.7-2.2,6.2-5.2C588.4,159.4,581.5,155.4,577.1,159.2z
		 M581.2,168.3c-2.3,0-4.3-2-4.3-4.3c0-2.3,2-4.3,4.3-4.3c2.3,0,4.3,2,4.3,4.3C585.5,166.3,583.5,168.3,581.2,168.3z"/>
	<path fill="#D4D4D4" d="M849.5,206h15.7v-20.1h3.6v-8h-22.9v8h3.6V206z M863.2,204h-11.7v-18.1h11.7V204z M847.9,179.9h18.9v4
		h-18.9V179.9z"/>
	<path fill="#D4D4D4" d="M818.5,206h15.7v-20.1h3.6v-8h-22.9v8h3.6V206z M832.2,204h-11.7v-18.1h11.7V204z M816.9,179.9h18.9v4
		h-18.9V179.9z"/>
	<path fill="#D4D4D4" d="M849.5,166h15.7v-20.1h3.6v-8h-22.9v8h3.6V166z M863.2,164h-11.7v-18.1h11.7V164z M847.9,139.9h18.9v4
		h-18.9V139.9z"/>
	<path fill="#D4D4D4" d="M818.5,166h15.7v-20.1h3.6v-8h-22.9v8h3.6V166z M832.2,164h-11.7v-18.1h11.7V164z M816.9,139.9h18.9v4
		h-18.9V139.9z"/>
	<path fill="#D4D4D4" d="M849.5,126h15.7v-20.1h3.6v-8h-22.9v8h3.6V126z M863.2,124h-11.7v-18.1h11.7V124z M847.9,99.9h18.9v4h-18.9
		V99.9z"/>
	<path fill="#D4D4D4" d="M818.5,126h15.7v-20.1h3.6v-8h-22.9v8h3.6V126z M832.2,124h-11.7v-18.1h11.7V124z M816.9,99.9h18.9v4h-18.9
		V99.9z"/>
	<path fill="#D4D4D4" d="M784.9,145.9h3.6V166h15.7v-20.1h3.6v-8h-22.9V145.9z M802.2,164h-11.7v-18.1h11.7V164z M786.9,139.9h18.9
		v4h-18.9V139.9z"/>
	<path fill="#D4D4D4" d="M784.9,105.9h3.6V126h15.7v-20.1h3.6v-8h-22.9V105.9z M802.2,124h-11.7v-18.1h11.7V124z M786.9,99.9h18.9v4
		h-18.9V99.9z"/>
	<circle fill="#D4D4D4" cx="790.8" cy="200.2" r="1"/>
	<path fill="#D4D4D4" d="M867.3,62.3c1.7,0,3.2-1.4,3.2-3.2s-1.4-3.2-3.2-3.2s-3.2,1.4-3.2,3.2S865.5,62.3,867.3,62.3z M867.3,57.9
		c0.6,0,1.2,0.5,1.2,1.2c0,0.6-0.5,1.2-1.2,1.2s-1.2-0.5-1.2-1.2C866.1,58.5,866.7,57.9,867.3,57.9z"/>
	<path fill="#D4D4D4" d="M873.1,59.2c0,1.7-0.7,3.2-2,4.3c-0.4,0.3-0.5,1-0.2,1.4c0.2,0.2,0.5,0.4,0.8,0.4c0.2,0,0.4-0.1,0.6-0.2
		c1.8-1.4,2.8-3.5,2.8-5.8c0-2.4-1.1-4.6-3.1-6c-0.4-0.3-1.1-0.2-1.4,0.2c-0.3,0.4-0.2,1.1,0.2,1.4
		C872.2,55.8,873.1,57.4,873.1,59.2z"/>
	<path fill="#D4D4D4" d="M877.9,59.2c0,3-1.4,5.8-3.7,7.7c-0.4,0.3-0.5,1-0.2,1.4c0.2,0.2,0.5,0.4,0.8,0.4c0.2,0,0.4-0.1,0.6-0.2
		c2.8-2.3,4.5-5.6,4.5-9.3c0-3.8-1.8-7.4-4.9-9.6c-0.4-0.3-1.1-0.2-1.4,0.2c-0.3,0.4-0.2,1.1,0.2,1.4
		C876.4,53.1,877.9,56.1,877.9,59.2z"/>
	<path fill="#D4D4D4" d="M862.1,65c0.2,0.1,0.4,0.2,0.6,0.2c0.3,0,0.6-0.1,0.8-0.4c0.3-0.4,0.3-1.1-0.2-1.4c-1.3-1-2-2.6-2-4.3
		c0-1.7,0.8-3.4,2.3-4.4c0.4-0.3,0.5-0.9,0.2-1.4c-0.3-0.4-0.9-0.5-1.4-0.2c-1.9,1.4-3.1,3.6-3.1,6C859.3,61.5,860.3,63.6,862.1,65z
		"/>
	<path fill="#D4D4D4" d="M858.9,68.5c0.2,0.1,0.4,0.2,0.6,0.2c0.3,0,0.6-0.1,0.8-0.4c0.3-0.4,0.3-1.1-0.2-1.4
		c-2.4-1.9-3.7-4.7-3.7-7.7c0-3.2,1.5-6.1,4.1-8c0.4-0.3,0.5-0.9,0.2-1.4c-0.3-0.4-0.9-0.5-1.4-0.2c-3.1,2.2-4.9,5.8-4.9,9.6
		C854.4,62.9,856,66.3,858.9,68.5z"/>
	<path fill="#D4D4D4" d="M337.4,145.1c0-6-4.9-10.9-10.9-10.9s-10.9,4.9-10.9,10.9s4.9,10.9,10.9,10.9S337.4,151.2,337.4,145.1z
		 M317.5,145.1c0-4.9,4-8.9,8.9-8.9s8.9,4,8.9,8.9c0,4.9-4,8.9-8.9,8.9S317.5,150.1,317.5,145.1z"/>
	<path fill="#D4D4D4" d="M300,134.2c-6,0-10.9,4.9-10.9,10.9s4.9,10.9,10.9,10.9s10.9-4.9,10.9-10.9S306,134.2,300,134.2z
		 M300,154.1c-4.9,0-8.9-4-8.9-8.9c0-4.9,4-8.9,8.9-8.9c4.9,0,8.9,4,8.9,8.9C308.9,150.1,304.9,154.1,300,154.1z"/>
	<path fill="#D4D4D4" d="M352.9,156.1c6,0,10.9-4.9,10.9-10.9s-4.9-10.9-10.9-10.9s-10.9,4.9-10.9,10.9S346.9,156.1,352.9,156.1z
		 M352.9,136.2c4.9,0,8.9,4,8.9,8.9c0,4.9-4,8.9-8.9,8.9s-8.9-4-8.9-8.9C344,140.2,348,136.2,352.9,136.2z"/>
	<path fill="#D4D4D4" d="M193.8,121.9h-22.9v8h3.6v33.5h15.7v-33.5h3.6V121.9z M188.1,143.8h-11.7v-14h11.7V143.8z M176.5,145.8
		h11.7v12h-11.7V145.8z M176.5,161.4v-1.5h11.7v1.5H176.5z M191.8,127.9h-18.9v-4h18.9V127.9z"/>
	<path fill="#D4D4D4" d="M139.9,129.9h3.6v33.5h15.7v-33.5h3.6v-8h-22.9V129.9z M157.1,143.8h-11.7v-14h11.7V143.8z M145.5,145.8
		h11.7v12h-11.7V145.8z M145.5,161.4v-1.5h11.7v1.5H145.5z M141.9,123.9h18.9v4h-18.9V123.9z"/>
	<path fill="#D4D4D4" d="M109.8,129.9h3.6v33.5h15.7v-33.5h3.6v-8h-22.9V129.9z M127.1,143.8h-11.7v-14h11.7V143.8z M115.5,145.8
		h11.7v12h-11.7V145.8z M115.5,161.4v-1.5h11.7v1.5H115.5z M111.8,123.9h18.9v4h-18.9V123.9z"/>
	<path fill="#D4D4D4" d="M174.5,91.4h15.7V57.9h3.6v-8h-22.9v8h3.6V91.4z M188.1,71.8h-11.7v-14h11.7V71.8z M176.5,73.8h11.7v12
		h-11.7V73.8z M176.5,89.4v-1.5h11.7v1.5H176.5z M172.9,51.9h18.9v4h-18.9V51.9z"/>
	<path fill="#D4D4D4" d="M143.5,91.4h15.7V57.9h3.6v-8h-22.9v8h3.6V91.4z M157.1,71.8h-11.7v-14h11.7V71.8z M145.5,73.8h11.7v12
		h-11.7V73.8z M145.5,89.4v-1.5h11.7v1.5H145.5z M141.9,51.9h18.9v4h-18.9V51.9z"/>
	<path fill="#D4D4D4" d="M113.5,91.4h15.7V57.9h3.6v-8h-22.9v8h3.6V91.4z M127.1,71.8h-11.7v-14h11.7V71.8z M115.5,73.8h11.7v12
		h-11.7V73.8z M115.5,89.4v-1.5h11.7v1.5H115.5z M111.8,51.9h18.9v4h-18.9V51.9z"/>
	<path fill="#D4D4D4" d="M170.9,200.9h3.6v33.5h15.7v-33.5h3.6v-8h-22.9V200.9z M188.1,214.9h-11.7v-14h11.7V214.9z M176.5,216.9
		h11.7v12h-11.7V216.9z M176.5,232.4v-1.5h11.7v1.5H176.5z M172.9,194.9h18.9v4h-18.9V194.9z"/>
	<path fill="#D4D4D4" d="M139.9,200.9h3.6v33.5h15.7v-33.5h3.6v-8h-22.9V200.9z M157.1,214.9h-11.7v-14h11.7V214.9z M145.5,216.9
		h11.7v12h-11.7V216.9z M145.5,232.4v-1.5h11.7v1.5H145.5z M141.9,194.9h18.9v4h-18.9V194.9z"/>
	<path fill="#D4D4D4" d="M192.1,12.8c1.7,0,3.2-1.4,3.2-3.2s-1.4-3.2-3.2-3.2s-3.2,1.4-3.2,3.2S190.3,12.8,192.1,12.8z M192.1,8.5
		c0.6,0,1.2,0.5,1.2,1.2c0,0.6-0.5,1.2-1.2,1.2c-0.6,0-1.2-0.5-1.2-1.2C190.9,9,191.4,8.5,192.1,8.5z"/>
	<path fill="#D4D4D4" d="M197.9,9.7c0,1.7-0.7,3.2-2,4.3c-0.4,0.3-0.5,1-0.2,1.4c0.2,0.2,0.5,0.4,0.8,0.4c0.2,0,0.4-0.1,0.6-0.2
		c1.8-1.4,2.8-3.5,2.8-5.8c0-2.4-1.2-4.6-3.1-6c-0.4-0.3-1.1-0.2-1.4,0.2c-0.3,0.4-0.2,1.1,0.2,1.4C197,6.4,197.9,8,197.9,9.7z"/>
	<path fill="#D4D4D4" d="M202.7,9.8c0,3-1.4,5.8-3.7,7.7c-0.4,0.3-0.5,1-0.2,1.4c0.2,0.2,0.5,0.4,0.8,0.4c0.2,0,0.4-0.1,0.6-0.2
		c2.8-2.3,4.5-5.6,4.5-9.3c0-3.8-1.8-7.4-4.9-9.6c-0.4-0.3-1.1-0.2-1.4,0.2c-0.3,0.4-0.2,1.1,0.2,1.4C201.2,3.7,202.7,6.7,202.7,9.8
		z"/>
	<path fill="#D4D4D4" d="M186.8,15.6c0.2,0.1,0.4,0.2,0.6,0.2c0.3,0,0.6-0.1,0.8-0.4c0.3-0.4,0.3-1.1-0.2-1.4c-1.3-1-2-2.6-2-4.3
		c0-1.7,0.8-3.4,2.3-4.4c0.4-0.3,0.5-0.9,0.2-1.4c-0.3-0.4-0.9-0.5-1.4-0.2c-1.9,1.4-3.1,3.6-3.1,6C184,12,185,14.1,186.8,15.6z"/>
	<path fill="#D4D4D4" d="M183.7,19.1c0.2,0.1,0.4,0.2,0.6,0.2c0.3,0,0.6-0.1,0.8-0.4c0.3-0.4,0.3-1.1-0.2-1.4
		c-2.4-1.9-3.7-4.7-3.7-7.7c0-3.2,1.5-6.1,4.1-8c0.4-0.3,0.5-0.9,0.2-1.4c-0.3-0.4-0.9-0.5-1.4-0.2c-3.1,2.2-4.9,5.8-4.9,9.6
		C179.2,13.4,180.8,16.8,183.7,19.1z"/>
	<circle fill="#D4D4D4" cx="115.8" cy="216.2" r="1"/>
	<path fill="#D4D4D4" d="M24.4,216.2h9.8c0.4,0,0.8-0.2,0.9-0.6l5.1-12.5c0.2-0.5,0-1.1-0.5-1.3c-0.5-0.2-1.1,0-1.3,0.5l-4.8,11.9
		h-9.2c-0.6,0-1,0.4-1,1S23.8,216.2,24.4,216.2z"/>
	<path fill="#D4D4D4" d="M47.1,216.2H52c1.2,0,2.1-1,2.1-2.1v-4.4h3.3c0.6,0,1-0.4,1-1s-0.4-1-1-1h-3.7c0,0,0,0,0,0H45v6.4
		C45,215.2,45.9,216.2,47.1,216.2z M47,209.6h5.1v4.4c0,0.1-0.1,0.1-0.1,0.1h-4.9c-0.1,0-0.1-0.1-0.1-0.1V209.6z"/>
</g>
</svg>
